<svg width="273" height="309" viewBox="0 0 273 309" fill="none" xmlns="http://www.w3.org/2000/svg">
<path d="M153.575 260.87H272.854V290.414H222.829L153.575 260.87Z" fill="url(#paint0_linear_65_166)"/>
<path d="M125.615 3.37772C127.568 2.862 129.704 2.862 131.951 3.4514L216.493 26.1063C226.034 28.6481 233.769 41.2833 233.769 54.25V271.074C233.769 281.02 229.238 288.314 222.829 290.045L230.27 288.056C236.68 286.325 241.211 279.031 241.211 269.085V52.2608C241.211 39.2572 233.475 26.6589 223.934 24.1171L139.356 1.42535C137.108 0.835954 135.009 0.835954 133.02 1.35168L125.615 3.37772Z" fill="url(#paint1_linear_65_166)"/>
<path d="M125.615 3.3777C119.205 5.10905 114.674 12.4028 114.674 22.3489V239.173C114.674 252.176 122.41 264.775 131.951 267.317L216.492 289.971C218.74 290.561 220.839 290.561 222.828 290.045C229.238 288.314 233.769 281.02 233.769 271.074V54.2499C233.769 41.2464 226.033 28.6481 216.492 26.1063L131.951 3.41454C129.704 2.82514 127.567 2.82514 125.615 3.3777Z" fill="url(#paint2_linear_65_166)"/>
<path d="M126.72 7.6876C128.304 7.24556 130.072 7.24556 131.877 7.76128L216.603 30.453C224.376 32.5527 230.675 42.8303 230.675 53.4395V270.374C230.675 278.515 226.954 284.446 221.723 285.846C220.139 286.288 218.371 286.288 216.566 285.772L131.84 263.08C124.068 260.981 117.769 250.703 117.769 240.094V23.1592C117.769 15.0551 121.489 9.08742 126.72 7.6876Z" fill="url(#paint3_linear_65_166)"/>
<path d="M159.358 29.5323C159.506 29.4954 159.69 29.4954 159.874 29.5323L181.461 35.3157C182.234 35.5367 182.86 36.5313 182.86 37.5996C182.86 38.41 182.492 38.9994 181.976 39.1468C181.829 39.1836 181.645 39.1836 181.461 39.1468L159.874 33.3633C159.1 33.1423 158.474 32.1477 158.474 31.0794C158.474 30.2322 158.842 29.6428 159.358 29.5323Z" fill="white"/>
<path d="M129.704 20.4334C129.962 20.3597 130.256 20.5071 130.478 20.8386C130.772 21.2806 130.772 21.9069 130.478 22.2016L128.672 24.1908L130.478 27.1378C130.772 27.5798 130.772 28.206 130.478 28.5007C130.404 28.5744 130.33 28.6113 130.22 28.6481C130.146 28.6849 130.035 28.6849 129.962 28.6481C129.778 28.6113 129.593 28.4639 129.446 28.2429L127.125 24.4486C126.831 24.0066 126.831 23.3804 127.125 23.0857L129.446 20.5439C129.557 20.5071 129.63 20.4702 129.704 20.4334Z" fill="white"/>
<path d="M242.205 90.5346C241.874 90.4241 241.468 90.4241 241.1 90.5346C239.405 90.9766 238.042 93.2237 238.042 95.5076V121.22C238.042 122.988 238.853 124.278 239.995 124.572L237.711 123.946C236.569 123.651 235.759 122.362 235.759 120.594V94.9182C235.759 92.6343 237.122 90.3872 238.816 89.9452C239.221 89.8347 239.59 89.8347 239.921 89.9452L242.205 90.5346Z" fill="url(#paint4_linear_65_166)"/>
<path d="M242.205 90.5346C243.347 90.8293 244.158 92.1186 244.158 93.8868V119.599C244.158 121.883 242.795 124.13 241.1 124.572C240.695 124.683 240.327 124.683 239.995 124.572C238.853 124.278 238.043 122.988 238.043 121.22V95.5076C238.043 93.2237 239.406 90.9766 241.1 90.5346C241.505 90.4241 241.874 90.4609 242.205 90.5346Z" fill="url(#paint5_linear_65_166)"/>
<path d="M126.462 35.9418C127.199 35.7576 128.046 35.7208 128.894 35.9786L219.071 60.1439C222.755 61.1385 225.702 65.9641 225.702 70.974V144.501C225.702 148.332 223.971 151.132 221.503 151.795C220.766 151.979 219.919 152.016 219.071 151.758L128.894 127.593C125.21 126.598 122.263 121.773 122.263 116.763V43.2356C122.226 39.4045 123.994 36.6049 126.462 35.9418Z" fill="url(#paint6_linear_65_166)"/>
<path d="M108.266 38.7046C109.039 38.4836 109.887 38.4836 110.771 38.7415L204.227 63.7908C208.021 64.8223 211.115 69.8321 211.115 75.0262V147.411C211.115 151.39 209.31 154.3 206.769 154.963C205.995 155.184 205.148 155.184 204.264 154.926L110.808 129.877C107.013 128.845 103.919 123.836 103.919 118.641V46.2563C103.882 42.2779 105.724 39.3677 108.266 38.7046Z" fill="url(#paint7_linear_65_166)"/>
<path d="M204.227 63.754L110.77 38.7046C109.886 38.4836 109.039 38.4836 108.265 38.6678C105.724 39.3677 103.919 42.241 103.919 46.2194V53.8079L211.115 82.541V74.9525C211.115 69.7953 208.021 64.7854 204.227 63.754Z" fill="url(#paint8_linear_65_166)"/>
<path d="M109.518 42.9778C109.665 42.941 109.849 42.941 109.997 42.9778L205.368 68.5429C206.105 68.7271 206.694 69.7217 206.694 70.7163V76.3155C206.694 77.0891 206.326 77.6417 205.847 77.789C205.7 77.8259 205.516 77.8259 205.368 77.789L109.997 52.224C109.26 52.0398 108.67 51.0452 108.67 50.0506V44.4513C108.67 43.6777 109.002 43.1252 109.518 42.9778Z" fill="url(#paint9_linear_65_166)"/>
<path d="M201.721 69.3534C201.979 69.2797 202.237 69.2797 202.532 69.3534C203.784 69.6849 204.779 71.3426 204.779 73.0002C204.779 74.2895 204.189 75.2473 203.342 75.4683C203.084 75.542 202.826 75.542 202.532 75.4683C201.279 75.1368 200.285 73.4791 200.285 71.8214C200.285 70.5321 200.874 69.5744 201.721 69.3534Z" fill="white"/>
<path d="M202.458 70.3848C202.495 70.3848 202.495 70.3848 202.532 70.3848C202.642 70.4216 202.753 70.569 202.753 70.7163V72.153L203.821 72.4477C203.932 72.4845 204.042 72.6318 204.042 72.7792C204.042 72.8897 203.968 73.0002 203.895 73.0002C203.858 73.0002 203.858 73.0002 203.821 73.0002L202.753 72.7055V74.1422C202.753 74.2527 202.679 74.3632 202.605 74.3632C202.569 74.3632 202.569 74.3632 202.532 74.3632C202.421 74.3264 202.311 74.179 202.311 74.0317V72.595L201.242 72.3003C201.132 72.2635 201.021 72.1161 201.021 71.9688C201.021 71.8583 201.095 71.7477 201.169 71.7477C201.206 71.7477 201.206 71.7477 201.242 71.7477L202.311 72.0424V70.6058C202.348 70.4953 202.384 70.4216 202.458 70.3848Z" fill="url(#paint10_linear_65_166)"/>
<path d="M125.026 120.704C125.137 120.667 125.247 120.667 125.395 120.704L200.837 140.891C201.39 141.038 201.832 141.775 201.832 142.512C201.832 143.101 201.574 143.506 201.206 143.617C201.095 143.654 200.985 143.654 200.837 143.617L125.395 123.43C124.842 123.283 124.4 122.546 124.4 121.809C124.4 121.22 124.658 120.815 125.026 120.704Z" fill="url(#paint11_linear_65_166)"/>
<path d="M113.68 114.331C114.086 114.221 114.528 114.221 115.007 114.331C117.033 114.884 118.653 117.536 118.653 120.299C118.653 122.399 117.696 123.946 116.333 124.314C115.927 124.425 115.485 124.425 115.007 124.314C112.98 123.762 111.36 121.109 111.36 118.347C111.36 116.21 112.317 114.7 113.68 114.331Z" fill="url(#paint12_linear_65_166)"/>
<path d="M114.91 118.991L115.834 117.63C115.86 117.592 115.881 117.546 115.895 117.496C115.908 117.447 115.915 117.393 115.914 117.34C115.913 117.286 115.904 117.233 115.888 117.184C115.873 117.135 115.85 117.09 115.822 117.053C115.794 117.015 115.761 116.986 115.725 116.966C115.689 116.947 115.651 116.937 115.613 116.938C115.575 116.94 115.537 116.951 115.502 116.973C115.467 116.995 115.436 117.026 115.41 117.065L114.486 118.426L113.499 117.11C113.471 117.073 113.438 117.044 113.403 117.024C113.367 117.004 113.329 116.995 113.291 116.996C113.253 116.996 113.215 117.008 113.181 117.029C113.146 117.05 113.115 117.081 113.088 117.119C113.036 117.197 113.008 117.301 113.01 117.409C113.013 117.517 113.046 117.619 113.102 117.694L114.089 119.01L113.163 120.375C113.111 120.453 113.083 120.556 113.086 120.664C113.089 120.771 113.122 120.873 113.178 120.947C113.234 121.022 113.308 121.063 113.385 121.062C113.461 121.06 113.534 121.016 113.587 120.94L114.513 119.576L115.5 120.892C115.559 120.97 115.634 121.008 115.708 121.006C115.782 121.004 115.856 120.963 115.91 120.882C115.936 120.844 115.957 120.798 115.97 120.749C115.984 120.699 115.99 120.646 115.989 120.593C115.987 120.539 115.979 120.487 115.963 120.438C115.947 120.389 115.925 120.344 115.897 120.307L114.91 118.991Z" fill="#F9FBFC"/>
<path d="M124.667 103.456C124.777 103.419 124.888 103.419 125.035 103.456L200.478 123.642C201.03 123.79 201.472 124.527 201.472 125.263C201.472 125.853 201.214 126.258 200.846 126.368C200.735 126.405 200.625 126.405 200.478 126.368L125.035 106.182C124.482 106.034 124.04 105.297 124.04 104.561C124.04 103.971 124.298 103.566 124.667 103.456Z" fill="url(#paint13_linear_65_166)"/>
<path d="M113.321 97.0829C113.726 96.9724 114.168 96.9724 114.647 97.0829C116.673 97.6354 118.294 100.288 118.294 103.051C118.294 105.15 117.336 106.697 115.973 107.066C115.568 107.176 115.126 107.176 114.647 107.066C112.621 106.513 111 103.861 111 101.098C111 98.9616 111.958 97.4513 113.321 97.0829Z" fill="url(#paint14_linear_65_166)"/>
<path d="M114.55 101.743L115.474 100.381C115.501 100.343 115.521 100.298 115.535 100.248C115.549 100.198 115.555 100.145 115.554 100.091C115.553 100.038 115.544 99.9846 115.529 99.9353C115.513 99.886 115.49 99.8415 115.462 99.8042C115.434 99.7669 115.402 99.7376 115.366 99.718C115.33 99.6984 115.292 99.6888 115.253 99.69C115.215 99.6911 115.177 99.7028 115.143 99.7244C115.108 99.7461 115.077 99.7773 115.051 99.8161L114.126 101.177L113.139 99.8613C113.111 99.8242 113.079 99.795 113.043 99.7754C113.007 99.7558 112.969 99.7462 112.931 99.7471C112.893 99.748 112.856 99.7594 112.821 99.7806C112.786 99.8019 112.755 99.8326 112.729 99.8709C112.676 99.9484 112.648 100.053 112.651 100.16C112.653 100.268 112.686 100.371 112.742 100.446L113.73 101.762L112.803 103.126C112.751 103.204 112.724 103.308 112.727 103.415C112.729 103.522 112.762 103.624 112.818 103.699C112.874 103.773 112.949 103.814 113.025 103.813C113.102 103.812 113.174 103.768 113.227 103.691L114.153 102.327L115.14 103.643C115.199 103.721 115.274 103.759 115.348 103.757C115.423 103.756 115.496 103.714 115.551 103.634C115.577 103.595 115.597 103.55 115.611 103.5C115.624 103.451 115.63 103.398 115.629 103.344C115.628 103.291 115.619 103.238 115.603 103.189C115.587 103.14 115.565 103.096 115.537 103.059L114.55 101.743Z" fill="#F9FBFC"/>
<path d="M124.667 86.4556C124.777 86.4188 124.888 86.4188 125.035 86.4556L200.478 106.642C201.03 106.79 201.472 107.527 201.472 108.263C201.472 108.853 201.214 109.258 200.846 109.368C200.735 109.405 200.625 109.405 200.478 109.368L125.035 89.1816C124.482 89.0342 124.04 88.2975 124.04 87.5607C124.04 86.9713 124.298 86.5661 124.667 86.4556Z" fill="url(#paint15_linear_65_166)"/>
<path d="M113.321 80.0829C113.726 79.9724 114.168 79.9724 114.647 80.0829C116.673 80.6354 118.294 83.2877 118.294 86.0505C118.294 88.1502 117.336 89.6974 115.973 90.0658C115.568 90.1763 115.126 90.1763 114.647 90.0658C112.621 89.5132 111 86.8609 111 84.0981C111 81.9616 111.958 80.4513 113.321 80.0829Z" fill="url(#paint16_linear_65_166)"/>
<path d="M114.55 84.7426L115.474 83.3813C115.501 83.343 115.521 83.2977 115.535 83.2479C115.549 83.1981 115.555 83.1448 115.554 83.0912C115.553 83.0375 115.544 82.9846 115.529 82.9353C115.513 82.886 115.49 82.8415 115.462 82.8042C115.434 82.7669 115.402 82.7376 115.366 82.718C115.33 82.6984 115.292 82.6888 115.253 82.69C115.215 82.6911 115.177 82.7028 115.143 82.7244C115.108 82.7461 115.077 82.7773 115.051 82.8161L114.126 84.1774L113.139 82.8613C113.111 82.8242 113.079 82.795 113.043 82.7754C113.007 82.7558 112.969 82.7462 112.931 82.7471C112.893 82.748 112.856 82.7594 112.821 82.7806C112.786 82.8019 112.755 82.8326 112.729 82.8709C112.676 82.9484 112.648 83.0525 112.651 83.1603C112.653 83.2681 112.686 83.3708 112.742 83.4457L113.73 84.7619L112.803 86.1265C112.751 86.2042 112.724 86.3079 112.727 86.4151C112.729 86.5223 112.762 86.6243 112.818 86.6988C112.874 86.7734 112.949 86.8144 113.025 86.813C113.102 86.8117 113.174 86.768 113.227 86.6915L114.153 85.327L115.14 86.6432C115.199 86.7212 115.274 86.7592 115.348 86.7574C115.423 86.7557 115.496 86.7142 115.551 86.6335C115.577 86.5952 115.597 86.5499 115.611 86.5002C115.624 86.4506 115.63 86.3976 115.629 86.3442C115.628 86.2908 115.619 86.2382 115.603 86.1892C115.587 86.1402 115.565 86.096 115.537 86.0589L114.55 84.7426Z" fill="#F9FBFC"/>
<path d="M124.667 69.4556C124.777 69.4188 124.888 69.4188 125.035 69.4556L200.478 89.6424C201.03 89.7898 201.472 90.5265 201.472 91.2633C201.472 91.8527 201.214 92.2579 200.846 92.3684C200.735 92.4052 200.625 92.4052 200.478 92.3684L125.035 72.1816C124.482 72.0342 124.04 71.2975 124.04 70.5607C124.04 69.9713 124.298 69.5661 124.667 69.4556Z" fill="url(#paint17_linear_65_166)"/>
<path d="M113.321 63.0829C113.726 62.9724 114.168 62.9724 114.647 63.0829C116.673 63.6354 118.294 66.2877 118.294 69.0505C118.294 71.1502 117.336 72.6974 115.973 73.0658C115.568 73.1763 115.126 73.1763 114.647 73.0658C112.621 72.5132 111 69.8609 111 67.0981C111 64.9616 111.958 63.4513 113.321 63.0829Z" fill="url(#paint18_linear_65_166)"/>
<path d="M114.55 67.7426L115.474 66.3813C115.501 66.343 115.521 66.2977 115.535 66.2479C115.549 66.1981 115.555 66.1448 115.554 66.0912C115.553 66.0375 115.544 65.9846 115.529 65.9353C115.513 65.886 115.49 65.8415 115.462 65.8042C115.434 65.7669 115.402 65.7376 115.366 65.718C115.33 65.6984 115.292 65.6888 115.253 65.69C115.215 65.6911 115.177 65.7028 115.143 65.7244C115.108 65.7461 115.077 65.7773 115.051 65.8161L114.126 67.1774L113.139 65.8613C113.111 65.8242 113.079 65.795 113.043 65.7754C113.007 65.7558 112.969 65.7462 112.931 65.7471C112.893 65.748 112.856 65.7594 112.821 65.7806C112.786 65.8019 112.755 65.8326 112.729 65.8709C112.676 65.9484 112.648 66.0525 112.651 66.1603C112.653 66.2681 112.686 66.3708 112.742 66.4457L113.73 67.7619L112.803 69.1265C112.751 69.2042 112.724 69.3079 112.727 69.4151C112.729 69.5223 112.762 69.6243 112.818 69.6988C112.874 69.7734 112.949 69.8144 113.025 69.813C113.102 69.8117 113.174 69.768 113.227 69.6915L114.153 68.327L115.14 69.6432C115.199 69.7212 115.274 69.7592 115.348 69.7574C115.423 69.7557 115.496 69.7142 115.551 69.6335C115.577 69.5952 115.597 69.5499 115.611 69.5002C115.624 69.4506 115.63 69.3976 115.629 69.3442C115.628 69.2908 115.619 69.2382 115.603 69.1892C115.587 69.1402 115.565 69.096 115.537 69.0589L114.55 67.7426Z" fill="#F9FBFC"/>
<path d="M103.402 301.649H62.7339V308.685H103.402V301.649Z" fill="url(#paint19_linear_65_166)"/>
<path d="M59.0503 191.137C59.0503 191.395 59.4555 191.69 60.2291 191.874C61.7762 192.279 64.2812 192.279 65.8283 191.874C66.6019 191.653 67.0071 191.395 67.0071 191.137V307.617C67.0071 307.874 66.6019 308.169 65.8283 308.353C64.2812 308.759 61.7762 308.759 60.2291 308.353C59.4555 308.132 59.0503 307.874 59.0503 307.617V191.137Z" fill="url(#paint20_linear_65_166)"/>
<path d="M0 182.996C0 187.306 6.15182 191.653 18.4555 194.931C43.0627 201.525 82.9575 201.525 107.565 194.931C119.868 191.616 126.02 187.306 126.02 182.996V185.722C126.02 190.032 119.868 194.379 107.565 197.657C82.9575 204.251 43.0627 204.251 18.4555 197.657C6.15182 194.342 0 190.032 0 185.685V182.996Z" fill="url(#paint21_linear_65_166)"/>
<path d="M0 182.996C0 178.686 6.15182 174.339 18.4555 171.061C43.0627 164.467 82.9575 164.467 107.565 171.061C119.868 174.376 126.02 178.686 126.02 182.996C126.02 187.306 119.868 191.653 107.565 194.931C82.9575 201.525 43.0627 201.525 18.4555 194.931C6.15182 191.653 0 187.306 0 182.996Z" fill="url(#paint22_linear_65_166)"/>
<path d="M17.7561 185.427C17.7561 184.764 18.9349 184.101 21.2925 183.586C26.0076 182.554 33.633 182.554 38.3481 183.586C40.7057 184.101 41.8845 184.764 41.8845 185.427C41.8845 186.091 40.7057 186.754 38.3481 187.269C33.633 188.301 26.0076 188.301 21.2925 187.269C18.9349 186.754 17.7561 186.091 17.7561 185.427Z" fill="url(#paint23_linear_65_166)"/>
<path d="M15.8037 161.225L17.6824 185.538C17.6824 186.054 18.3823 186.533 19.819 186.901C22.6554 187.674 27.2601 187.674 30.0966 186.901C31.5332 186.533 32.2331 186.017 32.2331 185.538L34.1118 161.225H15.8037Z" fill="url(#paint24_linear_65_166)"/>
<path d="M30.8331 174.597C27.5914 175.481 22.3237 175.481 19.082 174.597C17.7558 174.229 16.9823 173.787 16.7612 173.345L17.719 185.575C17.719 186.09 18.4189 186.569 19.8556 186.938C22.692 187.711 27.2967 187.711 30.1332 186.938C31.5698 186.569 32.2697 186.054 32.2697 185.575L33.2275 173.345C32.9328 173.787 32.1592 174.229 30.8331 174.597Z" fill="url(#paint25_linear_65_166)"/>
<path d="M16.7241 173.087C16.7241 172.534 17.5345 171.945 19.1185 171.54C22.3234 170.692 27.5543 170.692 30.7591 171.54C32.38 171.982 33.1535 172.534 33.1535 173.087C33.1535 173.639 32.3431 174.229 30.7591 174.634C27.5543 175.481 22.3234 175.481 19.1185 174.634C17.5345 174.229 16.7241 173.676 16.7241 173.087Z" fill="url(#paint26_linear_65_166)"/>
<path d="M21.9554 161.225H18.198L19.561 186.827C19.6346 186.864 19.7452 186.864 19.8188 186.901C20.4451 187.085 21.1818 187.196 21.9186 187.306V161.225H21.9554Z" fill="url(#paint27_linear_65_166)"/>
<path d="M16.0247 163.878C16.5036 164.172 17.2035 164.467 18.1245 164.725C21.9187 165.756 28.0705 165.756 31.8279 164.725C32.7488 164.467 33.4488 164.209 33.9276 163.878L34.1487 161.225H15.8037L16.0247 163.878Z" fill="url(#paint28_linear_65_166)"/>
<path d="M15.2881 161.41C15.2881 160.747 16.2459 160.083 18.1246 159.568C21.9188 158.536 28.0706 158.536 31.828 159.568C33.7067 160.083 34.6645 160.747 34.6645 161.41C34.6645 162.073 33.7067 162.736 31.828 163.251C28.0338 164.283 21.882 164.283 18.1246 163.251C16.209 162.736 15.2881 162.073 15.2881 161.41Z" fill="url(#paint29_linear_65_166)"/>
<path d="M28.5125 161.41L32.4909 154.116C32.8224 153.526 33.5592 153.269 34.1854 153.6L36.2483 154.632" stroke="url(#paint30_linear_65_166)" stroke-width="0.736745" stroke-miterlimit="10" stroke-linecap="round" stroke-linejoin="round"/>
<path d="M50.5779 183.217C50.0253 183.07 49.6201 182.407 49.6201 181.523V146.196C49.6201 145.054 50.32 143.912 51.1304 143.691L89.036 133.524C89.2202 133.487 89.4412 133.487 89.5885 133.524C90.1411 133.671 90.5463 134.334 90.5463 135.218V170.545C90.5463 171.687 89.8464 172.829 89.036 173.05L51.1304 183.217C50.9463 183.254 50.7621 183.254 50.5779 183.217Z" fill="url(#paint31_linear_65_166)"/>
<path d="M50.2463 183.696C50.2463 183.843 50.4674 183.991 50.8726 184.101L76.806 191.064C77.6533 191.285 79.0162 191.285 79.8635 191.064L117.769 180.896C118.174 180.786 118.395 180.639 118.395 180.491V181.596C118.395 181.744 118.174 181.891 117.769 182.002L79.8635 192.169C79.0162 192.39 77.6533 192.39 76.806 192.169L50.8726 185.206C50.4674 185.096 50.2463 184.949 50.2463 184.801V183.696Z" fill="url(#paint32_linear_65_166)"/>
<path d="M50.2463 183.696C50.2463 183.549 50.4674 183.401 50.8726 183.291L88.7781 173.124C89.6254 172.903 90.9883 172.903 91.8356 173.124L117.769 180.086C118.174 180.197 118.395 180.344 118.395 180.491C118.395 180.639 118.174 180.786 117.769 180.896L79.8635 191.064C79.0162 191.285 77.6533 191.285 76.806 191.064L50.8726 184.101C50.4305 183.991 50.2463 183.843 50.2463 183.696Z" fill="url(#paint33_linear_65_166)"/>
<path d="M101.524 178.391C101.524 178.465 101.376 178.576 101.119 178.649L71.0226 186.717C70.5069 186.864 69.6596 186.864 69.1439 186.717L58.7558 183.917C58.4979 183.843 58.3506 183.77 58.3506 183.659C58.3506 183.585 58.4979 183.475 58.7558 183.401L88.8518 175.334C89.3676 175.187 90.2148 175.187 90.7305 175.334L101.119 178.134C101.376 178.207 101.524 178.281 101.524 178.391Z" fill="url(#paint34_linear_65_166)"/>
<path d="M101.524 183.77C101.524 183.843 101.413 183.917 101.229 183.954L89.2939 187.159C88.8887 187.269 88.2624 187.269 87.8572 187.159L81.7791 185.538C81.5581 185.464 81.4844 185.427 81.4844 185.354C81.4844 185.28 81.5949 185.206 81.7791 185.17L93.7143 181.965C94.1196 181.854 94.7458 181.854 95.151 181.965L101.192 183.586C101.413 183.622 101.524 183.696 101.524 183.77Z" fill="url(#paint35_linear_65_166)"/>
<path opacity="0.5" d="M57.2084 163.067C56.5822 162.883 56.1401 162.183 56.1401 161.188C56.1401 159.899 56.9137 158.684 57.8347 158.426L85.0205 151.132C85.2416 151.058 85.4626 151.058 85.6468 151.132C86.273 151.316 86.7151 152.016 86.7151 153.011C86.7151 154.3 85.9415 155.516 85.0205 155.773L57.8347 163.067C57.6136 163.104 57.3926 163.104 57.2084 163.067Z" stroke="white" stroke-width="0.368372" stroke-miterlimit="10"/>
<path d="M73.9323 154.963L72.1641 155.442L70.9854 158.647L72.7167 158.168L73.9323 154.963Z" fill="white"/>
<path d="M70.6909 155.847L68.9227 156.326L67.7439 159.531L69.4753 159.052L70.6909 155.847Z" fill="white"/>
<path d="M67.4492 156.731L65.681 157.173L64.5022 160.415L66.2335 159.936L67.4492 156.731Z" fill="white"/>
<path d="M57.9819 162.146L59.7501 161.667L60.9289 158.463L59.1976 158.942L57.9819 162.146Z" fill="white"/>
<path d="M64.2075 157.579L62.4393 158.057L61.2236 161.262L62.9918 160.82L64.2075 157.579Z" fill="white"/>
<path d="M83.6577 152.348L81.9263 152.827L80.7107 156.031L82.4789 155.553L83.6577 152.348Z" fill="white"/>
<path d="M84.7994 154.926C85.3888 154.779 85.8677 154.005 85.8677 153.195C85.8677 152.569 85.6099 152.127 85.2046 152.016H85.1678L83.989 155.147L84.7994 154.926Z" fill="white"/>
<path d="M77.1743 154.079L75.4429 154.558L74.2273 157.763L75.9586 157.321L77.1743 154.079Z" fill="white"/>
<path d="M80.4157 153.232L78.6844 153.674L77.4688 156.915L79.2369 156.437L80.4157 153.232Z" fill="white"/>
<defs>
<linearGradient id="paint0_linear_65_166" x1="266.252" y1="275.641" x2="229.917" y2="275.641" gradientUnits="userSpaceOnUse">
<stop stop-color="white"/>
<stop offset="1" stop-color="#AEBDDF"/>
</linearGradient>
<linearGradient id="paint1_linear_65_166" x1="183.412" y1="-45.6079" x2="183.412" y2="297.015" gradientUnits="userSpaceOnUse">
<stop stop-color="#ACBDDE"/>
<stop offset="1" stop-color="#2E405C"/>
</linearGradient>
<linearGradient id="paint2_linear_65_166" x1="304.643" y1="146.691" x2="-85.4193" y2="146.691" gradientUnits="userSpaceOnUse">
<stop stop-color="white"/>
<stop offset="1" stop-color="#AEBDDF"/>
</linearGradient>
<linearGradient id="paint3_linear_65_166" x1="174.223" y1="23.8702" x2="174.223" y2="312.183" gradientUnits="userSpaceOnUse">
<stop stop-color="#FF6B5A"/>
<stop offset="1" stop-color="#EB001B"/>
</linearGradient>
<linearGradient id="paint4_linear_65_166" x1="264.743" y1="81.9797" x2="235.722" y2="110.617" gradientUnits="userSpaceOnUse">
<stop stop-color="#ACBDDE"/>
<stop offset="1" stop-color="#2E405C"/>
</linearGradient>
<linearGradient id="paint5_linear_65_166" x1="274.059" y1="99.0376" x2="218.323" y2="113.452" gradientUnits="userSpaceOnUse">
<stop stop-color="#ACBDDE"/>
<stop offset="1" stop-color="#2E405C"/>
</linearGradient>
<linearGradient id="paint6_linear_65_166" x1="173.968" y1="-60.2096" x2="173.968" y2="214.353" gradientUnits="userSpaceOnUse">
<stop stop-color="#FF6B5A"/>
<stop offset="1" stop-color="#EB001B"/>
</linearGradient>
<linearGradient id="paint7_linear_65_166" x1="157.497" y1="53.3592" x2="157.497" y2="348.066" gradientUnits="userSpaceOnUse">
<stop stop-color="#EB001B"/>
<stop offset="1" stop-color="#AEBDDF"/>
</linearGradient>
<linearGradient id="paint8_linear_65_166" x1="157.497" y1="19.0154" x2="157.497" y2="203.743" gradientUnits="userSpaceOnUse">
<stop stop-color="#EB001B"/>
<stop offset="1" stop-color="#AEBDDF"/>
</linearGradient>
<linearGradient id="paint9_linear_65_166" x1="157.681" y1="18.6838" x2="157.681" y2="106.239" gradientUnits="userSpaceOnUse">
<stop stop-color="white"/>
<stop offset="1" stop-color="#AEBDDF"/>
</linearGradient>
<linearGradient id="paint10_linear_65_166" x1="202.545" y1="65.4993" x2="202.545" y2="74.955" gradientUnits="userSpaceOnUse">
<stop stop-color="#ACBDDE"/>
<stop offset="1" stop-color="#2E405C"/>
</linearGradient>
<linearGradient id="paint11_linear_65_166" x1="163.111" y1="83.5873" x2="163.111" y2="144.184" gradientUnits="userSpaceOnUse">
<stop stop-color="white"/>
<stop offset="1" stop-color="#AEBDDF"/>
</linearGradient>
<linearGradient id="paint12_linear_65_166" x1="115.005" y1="120.957" x2="115.005" y2="149.958" gradientUnits="userSpaceOnUse">
<stop stop-color="#FF6B5A"/>
<stop offset="1" stop-color="#EB001B"/>
</linearGradient>
<linearGradient id="paint13_linear_65_166" x1="162.751" y1="66.3388" x2="162.751" y2="126.935" gradientUnits="userSpaceOnUse">
<stop stop-color="white"/>
<stop offset="1" stop-color="#AEBDDF"/>
</linearGradient>
<linearGradient id="paint14_linear_65_166" x1="114.646" y1="103.708" x2="114.646" y2="132.709" gradientUnits="userSpaceOnUse">
<stop stop-color="#FF6B5A"/>
<stop offset="1" stop-color="#EB001B"/>
</linearGradient>
<linearGradient id="paint15_linear_65_166" x1="162.751" y1="49.3388" x2="162.751" y2="109.935" gradientUnits="userSpaceOnUse">
<stop stop-color="white"/>
<stop offset="1" stop-color="#AEBDDF"/>
</linearGradient>
<linearGradient id="paint16_linear_65_166" x1="114.646" y1="86.7081" x2="114.646" y2="115.709" gradientUnits="userSpaceOnUse">
<stop stop-color="#FF6B5A"/>
<stop offset="1" stop-color="#EB001B"/>
</linearGradient>
<linearGradient id="paint17_linear_65_166" x1="162.751" y1="32.3388" x2="162.751" y2="92.9353" gradientUnits="userSpaceOnUse">
<stop stop-color="white"/>
<stop offset="1" stop-color="#AEBDDF"/>
</linearGradient>
<linearGradient id="paint18_linear_65_166" x1="114.646" y1="69.7081" x2="114.646" y2="98.7092" gradientUnits="userSpaceOnUse">
<stop stop-color="#FF6B5A"/>
<stop offset="1" stop-color="#EB001B"/>
</linearGradient>
<linearGradient id="paint19_linear_65_166" x1="98.4986" y1="305.174" x2="42.0463" y2="305.174" gradientUnits="userSpaceOnUse">
<stop stop-color="white"/>
<stop offset="1" stop-color="#AEBDDF"/>
</linearGradient>
<linearGradient id="paint20_linear_65_166" x1="58.1533" y1="249.918" x2="67.5753" y2="249.918" gradientUnits="userSpaceOnUse">
<stop stop-color="white"/>
<stop offset="1" stop-color="#AEBDDF"/>
</linearGradient>
<linearGradient id="paint21_linear_65_166" x1="63.0222" y1="212.937" x2="63.0222" y2="196.967" gradientUnits="userSpaceOnUse">
<stop stop-color="white"/>
<stop offset="1" stop-color="#AEBDDF"/>
</linearGradient>
<linearGradient id="paint22_linear_65_166" x1="63.0222" y1="200.014" x2="63.0222" y2="95.3657" gradientUnits="userSpaceOnUse">
<stop stop-color="white"/>
<stop offset="1" stop-color="#AEBDDF"/>
</linearGradient>
<linearGradient id="paint23_linear_65_166" x1="27.2513" y1="168.35" x2="31.0337" y2="193.409" gradientUnits="userSpaceOnUse">
<stop stop-color="white"/>
<stop offset="1" stop-color="#AEBDDF"/>
</linearGradient>
<linearGradient id="paint24_linear_65_166" x1="9.61299" y1="174.365" x2="38.3193" y2="174.365" gradientUnits="userSpaceOnUse">
<stop stop-color="#ACBDDE" stop-opacity="0.1"/>
<stop offset="1" stop-color="#2E405C"/>
</linearGradient>
<linearGradient id="paint25_linear_65_166" x1="14.7872" y1="180.409" x2="38.3959" y2="180.409" gradientUnits="userSpaceOnUse">
<stop stop-color="#EB001B"/>
<stop offset="1" stop-color="#FE8F01"/>
</linearGradient>
<linearGradient id="paint26_linear_65_166" x1="24.9679" y1="165.692" x2="24.9679" y2="177.91" gradientUnits="userSpaceOnUse">
<stop stop-color="#EB001B"/>
<stop offset="1" stop-color="#FE8F01"/>
</linearGradient>
<linearGradient id="paint27_linear_65_166" x1="20.0803" y1="186.653" x2="20.0803" y2="158.614" gradientUnits="userSpaceOnUse">
<stop offset="0.00558659" stop-color="white" stop-opacity="0"/>
<stop offset="1" stop-color="white"/>
</linearGradient>
<linearGradient id="paint28_linear_65_166" x1="12.8137" y1="163.046" x2="37.6619" y2="163.519" gradientUnits="userSpaceOnUse">
<stop stop-color="#ACBDDE" stop-opacity="0.1"/>
<stop offset="1" stop-color="#2E405C"/>
</linearGradient>
<linearGradient id="paint29_linear_65_166" x1="24.9733" y1="163.976" x2="24.9733" y2="152.733" gradientUnits="userSpaceOnUse">
<stop stop-color="white"/>
<stop offset="1" stop-color="#AEBDDF"/>
</linearGradient>
<linearGradient id="paint30_linear_65_166" x1="28.1381" y1="157.444" x2="36.6305" y2="157.444" gradientUnits="userSpaceOnUse">
<stop stop-color="#5D6E8C"/>
<stop offset="1" stop-color="#2E405C"/>
</linearGradient>
<linearGradient id="paint31_linear_65_166" x1="70.0981" y1="112.318" x2="70.0981" y2="183.9" gradientUnits="userSpaceOnUse">
<stop stop-color="#FF6B5A"/>
<stop offset="1" stop-color="#EB001B"/>
</linearGradient>
<linearGradient id="paint32_linear_65_166" x1="84.3095" y1="196.954" x2="84.3095" y2="173.556" gradientUnits="userSpaceOnUse">
<stop stop-color="#ACBDDE"/>
<stop offset="1" stop-color="#2E405C"/>
</linearGradient>
<linearGradient id="paint33_linear_65_166" x1="85.6956" y1="207.171" x2="83.6952" y2="170.982" gradientUnits="userSpaceOnUse">
<stop stop-color="white"/>
<stop offset="1" stop-color="#AEBDDF"/>
</linearGradient>
<linearGradient id="paint34_linear_65_166" x1="34.1633" y1="181.012" x2="121.368" y2="181.012" gradientUnits="userSpaceOnUse">
<stop stop-color="#ACBDDE"/>
<stop offset="1" stop-color="#2E405C"/>
</linearGradient>
<linearGradient id="paint35_linear_65_166" x1="34.1633" y1="184.548" x2="121.368" y2="184.548" gradientUnits="userSpaceOnUse">
<stop stop-color="#ACBDDE"/>
<stop offset="1" stop-color="#2E405C"/>
</linearGradient>
</defs>
</svg>
